<?xml version="1.0" encoding="UTF-8"?>
<svg id="Layer_1" data-name="Layer 1" xmlns="http://www.w3.org/2000/svg" xmlns:xlink="http://www.w3.org/1999/xlink" viewBox="0 0 500 500">
  <defs>
    <style>
      .cls-1 {
        fill: none;
      }

      .cls-2 {
        clip-path: url(#clippath-1);
      }

      .cls-3 {
        fill: #05d17f;
      }

      .cls-4 {
        fill: #00b069;
      }

      .cls-5 {
        fill: #403f3e;
      }

      .cls-6 {
        clip-path: url(#clippath-2);
      }

      .cls-7 {
        clip-path: url(#clippath);
      }
    </style>
    <clipPath id="clippath">
      <path class="cls-1" d="M500,500H0V0h500v500Z"/>
    </clipPath>
    <clipPath id="clippath-1">
      <path class="cls-1" d="M214.79,110.85c15.17-4,31.11-5.38,46.77-3.84,16.37,1.51,32.4,6.15,47.01,13.38,22.3,11.02,41.21,27.85,55.35,47.63,16.69,23.29,26.9,50.62,30.43,78.61h-40.33c-2.19-24.46-12.48-48.32-29.67-66.61-7.8-8.34-16.98-15.5-27.16-21-17.84-9.67-38.87-13.92-59.25-11.68-15.46,1.61-30.47,6.87-43.46,15.04-18.49,11.54-32.96,28.65-41.62,48.05-5.14,11.48-8.31,23.75-9.46,36.2h-39.79c3.99-32.15,16.96-63.45,38.26-88.69,10.67-12.64,23.42-23.72,37.85-32.3,10.88-6.49,22.71-11.53,35.07-14.81Z"/>
    </clipPath>
    <clipPath id="clippath-2">
      <path class="cls-1" d="M163.76,376.97c59.55,0,119.1,0,178.65,0-10.59,9-21.91,17.81-33.82,26.4-17.33,12.46-35.66,24.6-55.64,36.07-10.12-5.81-19.75-11.82-29.1-17.93-21.71-14.28-41.97-29.11-60.09-44.54Z"/>
    </clipPath>
  </defs>
  <g class="cls-7">
    <g>
      <g class="cls-2">
        <rect class="cls-3" x="46.54" y="48.88" width="387.52" height="242.5"/>
        <rect class="cls-4" x="89.89" y="170.85" width="318.32" height="137.6" transform="translate(-73.97 116.7) rotate(-23.06)"/>
      </g>
      <g class="cls-6">
        <rect class="cls-3" x="66.69" y="369.09" width="392.92" height="239.26"/>
        <polygon class="cls-4" points="403.84 561.61 87.41 500.32 115.12 367.2 431.55 428.5 403.84 561.61"/>
      </g>
      <g>
        <g>
          <path d="M242.34,60.55h1.89c7.39.19,14.66,3.32,19.72,8.55,2.9,2.95,5.1,6.54,6.39,10.42,4.29,1.57,8.05,4.44,10.68,8.08,2.33,3.21,3.74,7.04,4.06,10.96.09.98.08,1.97.07,2.96.02,7.29-.01,14.58.01,21.87-.85,0-1.7,0-2.54,0,.02-7.67.01-15.34,0-23,0-2.36-.41-4.71-1.27-6.92-1.81-4.71-5.51-8.73-10.19-10.92.33,1.75.54,3.53.54,5.32,0,4.93,0,9.85,0,14.78-.06,4.73-2.48,9.36-6.38,12.21-2.61,1.94-5.84,3.09-9.12,3.23-4.58.24-9.19-1.54-12.38-4.71-2.97-2.89-4.65-6.94-4.65-11.01.05-2.86-.2-5.77.49-8.59,1.08-4.74,3.99-9.06,8.05-11.9,3.5-2.46,7.81-3.8,12.13-3.8,1.69.01,3.38-.05,5.06.16.81.1,1.62.24,2.43.39-1.87-4.42-5.05-8.31-9.07-11.07-3.35-2.3-7.28-3.8-11.35-4.34-4.87-.65-9.94.07-14.39,2.1-4.26,1.91-7.95,4.99-10.56,8.77-2.82,4.08-4.38,8.99-4.35,13.9,0,11.8-.01,23.59,0,35.39-.85,0-1.69,0-2.54,0,.01-11.1,0-22.19,0-33.29.04-1.65-.05-3.3.14-4.95.81-7.85,5.31-15.26,12.03-19.72,4.41-2.99,9.72-4.67,15.09-4.88ZM247.91,84.87c-3.4,2.85-5.6,6.98-6.09,11.3-.18,1.35-.07,2.72-.11,4.08-.03,1.98-.05,4.02.59,5.93,1.17,3.82,4.22,7.03,8.03,8.51,3.33,1.31,7.21,1.28,10.51-.11,2.12-.89,4.01-2.28,5.43-4.05,1.84-2.28,2.91-5.14,2.92-8.04,0-5.11.04-10.22-.01-15.33-.07-1.94-.35-3.88-.88-5.75-2.68-.82-5.51-.98-8.3-.9-4.4-.06-8.78,1.55-12.09,4.35Z"/>
          <path d="M215.08,126.71c.84,0,1.68,0,2.52,0,0,.33,0,.66,0,1,0,1.05,0,2.11,0,3.16-.84,0-1.69,0-2.53,0,0-1.01,0-2.02,0-3.03,0-.38,0-.75,0-1.13Z"/>
          <path d="M282.64,126.71c.84,0,1.68,0,2.52,0,0,.33,0,.66,0,1,0,1.05,0,2.11,0,3.16-.84,0-1.69,0-2.53,0,0-1.01,0-2.03,0-3.04,0-.37,0-.74,0-1.11Z"/>
        </g>
        <path class="cls-5" d="M201.55,125.66c.13-1.01.84-2.09,1.94-2.27,3.86-.01,7.73-.01,11.59,0,.85,0,1.69,0,2.54,0,21.67-.01,43.35-.01,65.02,0,.85,0,1.69,0,2.54,0,4.15-.02,8.3,0,12.45,0,.68-.07,1.22.45,1.57.96.4.57.45,1.26.55,1.92,5.37,36.56,10.75,73.12,16.12,109.69.17.88.27,1.78.08,2.67-.42,3.06-2.47,5.9-5.41,7.15-1.32.62-2.81.79-4.26.87h-111.85c-2.18-.16-4.35-.9-5.98-2.34-1.84-1.56-2.94-3.84-3.14-6.19v-1.13c.77-5.55,1.61-11.1,2.41-16.65,4.61-31.56,9.23-63.12,13.82-94.69ZM215.08,126.71c0,.37,0,.75,0,1.13l-.08-.06c-.86.18-1.59.75-2.14,1.4-1.32,1.58-1.21,4.06.23,5.52,1.35,1.49,3.81,1.82,5.54.77,1.72-.97,2.56-3.13,1.93-4.96-.42-1.34-1.57-2.41-2.95-2.82,0-.33,0-.67,0-1-.84,0-1.68,0-2.52,0ZM282.64,126.71c0,.37,0,.74,0,1.11v-.12c-.74.24-1.43.63-1.95,1.19-1.4,1.4-1.59,3.76-.42,5.35,1.08,1.58,3.31,2.27,5.14,1.61,1.73-.58,2.97-2.29,2.92-4.06.02-1.84-1.34-3.56-3.16-4.08,0-.33,0-.67,0-1-.84,0-1.68,0-2.52,0Z"/>
      </g>
      <g>
        <g>
          <path class="cls-5" d="M107.55,290.01c1.41-1.83,3.82-2.62,6.11-2.58,13.74-.01,27.47,0,41.21-.01.8-.04,1.7.18,2.15.88.2.46.14.97.17,1.46-.02,13.05,0,26.09,0,39.14.03.84-.29,2.09-1.37,2.1-2.3,0-4.61.1-6.9-.05-1.14-.48-1.02-1.89-1.04-2.88-2.08.08-4.27-.09-6.07-1.22-.85,2.01-2.83,3.63-5.1,3.9-1.47.27-2.98.26-4.48.27-6.18,0-12.37,0-18.55,0-1.58.02-3.22-.23-4.54-1.12-2.08-1.37-3.02-3.86-3.04-6.21,0-9.57,0-19.13,0-28.7-.02-1.74.3-3.59,1.47-4.98ZM114.97,294.41c-.99.95-1.1,2.39-1.13,3.66,0,6.57,0,13.15,0,19.72.01,1.13.05,2.41.91,3.28.69.74,1.78.85,2.76.85,4.58,0,9.15.03,13.73.04,1.26-.02,2.66-.1,3.64-.95.84-.72,1.03-1.86,1.02-2.89,0-4.73,0-9.46,0-14.18,0-1.3-.02-2.81-1.06-3.77-1.43-1.19-3.45-.86-5.19-.91-2.02.1-4.12-.27-6.07.34-1.3.4-1.93,1.65-2.19,2.85,1.01-.36,2.05-.68,3.14-.59,3.23.02,5.82,3.08,5.78,6.1,0,3.61-4.12,6.48-7.68,5.55-1.8-.38-3.17-1.75-3.97-3.29-.77-1.35-.58-2.95-.61-4.43.04-2.07-.22-4.26.73-6.18.82-1.75,2.61-2.95,4.55-3.3,2.19-.36,4.42-.15,6.62-.23,2.92.04,6.03-.34,8.75.93,2.36,1.03,3.47,3.64,3.52,6.02.04,4.93-.01,9.87.02,14.81.06,1.24.24,2.69,1.34,3.49,1.3.71,2.86.64,4.31.65,0-7.96,0-15.92,0-23.87-.05-1.2-.08-2.54-.91-3.51-.92-.93-2.33-1.12-3.59-1.13-8.3,0-16.6,0-24.9,0-1.21.02-2.57.1-3.49.96Z"/>
          <path class="cls-5" d="M161.72,287.49c2.27-.12,4.56-.08,6.83-.02,1.13.11,1.38,1.4,1.33,2.29,0,12.94,0,25.88,0,38.82-.03.75-.07,1.62-.68,2.17-.67.37-1.48.23-2.22.27-1.78-.06-3.56.09-5.33-.07-.93-.2-1.15-1.27-1.12-2.05,0-13.14,0-26.29,0-39.43-.04-.79.27-1.82,1.2-1.98Z"/>
          <path class="cls-5" d="M173.67,287.91c.47-.57,1.29-.46,1.95-.49,10.97.03,21.94-.02,32.9.02,1.1-.07,1.65,1.1,1.57,2.02,0,13.16,0,26.32,0,39.47.05.89-.47,2.12-1.59,1.99-2.33,0-4.66.03-6.99,0-1.08.04-1.47-1.18-1.43-2.02-.01-3.6.02-7.2,0-10.8-.03-1.27-.24-2.69-1.29-3.58-.9-.81-2.22-.8-3.37-.83-2.87.01-5.75,0-8.62,0-1.29-.02-2.74.28-3.56,1.32-.87,1.15-.72,2.66-.74,4.01.04,1.85-.07,3.7.06,5.54.06,1.03.62,2.05,1.58,2.55,1.37.75,3,.53,4.51.59-1.91-1.13-3.47-3.03-3.52-5.27-.4-3.5,3.24-6.62,6.77-6.18,2.62.07,4.69,2.27,5.33,4.59.25,2.37.4,4.98-.9,7.11-1.3,2.09-3.93,3.02-6.36,3.04-3.19,0-6.39,0-9.58,0-2.22.02-4.53-.86-5.79-2.69-1.52-2.06-1.49-4.71-1.46-7.12.07-2.25-.27-4.59.6-6.74.7-1.79,2.37-3.13,4.26-3.63,1.34-.4,2.76-.34,4.15-.35,0-3.41.02-6.83-.01-10.24-.02-1.29-.4-2.82-1.72-3.43-1.82-.79-3.85-.36-5.77-.53-.73-.03-1.5-.55-1.48-1.31-.08-1.53,0-3.06-.04-4.59,0-.84-.09-1.79.54-2.47ZM188.46,293.46v17.03c2.64.01,5.28-.02,7.93.01,1.28,0,2.51.39,3.7.8,0-5.94,0-11.89,0-17.83-3.88,0-7.75,0-11.63,0Z"/>
          <path class="cls-5" d="M214.7,287.46c1.76-.11,3.53,0,5.29-.05.75.05,1.7-.15,2.25.48.52.6.46,1.44.49,2.18-.02,12.93,0,25.86-.02,38.79-.01.88-.32,2.13-1.46,2.12-2.13.06-4.26.04-6.39.01-1.13.06-1.6-1.18-1.52-2.09,0-13.15,0-26.31,0-39.46-.05-.83.36-1.9,1.35-1.98Z"/>
          <path class="cls-5" d="M226.01,289.13c.03-.83.67-1.74,1.62-1.69,10.01-.04,20.03,0,30.04-.02.83.02,1.8-.02,2.43.61.64.61.65,1.53.66,2.34-.01,12.94,0,25.89,0,38.83.04.82-.45,1.89-1.46,1.79-2.12,0-4.25.08-6.36-.04-2.55-.87-5-2.15-7.72-2.43-4.85-.8-9.94-.12-14.38,1.94-.66.25-1.36.75-2.09.45-.85-.55-1.19-1.55-1.53-2.43-1.89-5.92-1.61-12.49.97-18.19,1.79-3.93,4.32-7.61,7.77-10.36,3.85-3.49,8.93-5.48,14.06-6.43-7.36-.13-14.72,0-22.08-.06-.71-.02-1.6-.22-1.86-.94-.17-1.12-.12-2.26-.07-3.38ZM238.58,309.54c-1.84,4.99-1.48,10.59.61,15.46,3.72-.14,7.6.11,10.91,1.93-.01-9.97,0-19.93,0-29.9-5.43,2.38-9.45,7.18-11.51,12.51Z"/>
          <path class="cls-5" d="M240.92,330.35c1.3-.21,2.73-.21,3.89.47,1.82,1.05,2.9,3.12,2.77,5.16-.24,2.51-2.77,4.3-5.23,4.54-3.29.28-6.03-3.07-5.4-6.1.28-2,2.08-3.45,3.97-4.06Z"/>
        </g>
        <g>
          <path class="cls-4" d="M273.17,289.44c-.07-.95.6-2.09,1.71-2.01,11.18-.02,22.36-.01,33.54,0,1.15-.12,1.79,1.07,1.69,2.03,0,13.14,0,26.28,0,39.43.02.82-.35,2.02-1.39,2.02-2.42.03-4.85.03-7.27,0-1.02,0-1.37-1.18-1.35-1.99-.02-3.6.01-7.19,0-10.79-.02-1.29-.24-2.75-1.32-3.64-.84-.75-2.05-.77-3.13-.8-2.98,0-5.95,0-8.93,0-1.28,0-2.7.31-3.49,1.36-.79,1.06-.7,2.43-.72,3.68.03,1.85-.04,3.7.03,5.55.03,1.04.47,2.13,1.4,2.7,1.39.9,3.14.66,4.72.71-1.91-1.12-3.47-3.01-3.52-5.24-.42-3.6,3.4-6.78,7.01-6.18,1.94.11,3.52,1.46,4.44,3.04,1.05,1.55.79,3.5.76,5.25-.07,2.15-1.17,4.35-3.18,5.4-2.77,1.53-6.06.9-9.09,1.03-2.98-.14-6.3.56-8.92-1.18-2.27-1.49-3.03-4.27-3.02-6.78.03-2.14-.08-4.3.08-6.44.16-2.04,1.24-4.06,3.12-5.09,1.73-1.03,3.83-1.08,5.81-1.03,0-3.41.02-6.83-.01-10.24-.02-1.31-.41-2.86-1.75-3.45-1.84-.77-3.88-.34-5.8-.51-.69-.05-1.42-.55-1.4-1.28-.07-1.85-.02-3.7-.02-5.56ZM288.47,293.46c0,5.68,0,11.35,0,17.03,2.61,0,5.22-.02,7.83,0,1.31,0,2.57.38,3.8.8v-17.83h-11.62Z"/>
          <path class="cls-4" d="M312.43,292.87c.02-3.05,3.15-5.56,6.21-5.45,6.18,0,12.36,0,18.54,0,1.76-.15,2.98,1.33,4.01,2.49,1.43,1.55,1.49,3.74,1.51,5.71-.04,2.98.06,5.96-.06,8.94-.1,2.05-1.17,4.1-3.06,5.12-1.47.92-3.26,1.07-4.95,1.08-5.32,0-10.64,0-15.96,0,.06,2.65-.15,5.33.17,7.97.18,1.02.37,2.3,1.43,2.82.97.45,2.09.48,3.15.51,4.8,0,9.6-.01,14.39,0,1.51-.01,3.19.41,4.07,1.7,1.08,1.62.8,3.62.8,5.45.02.89-.61,1.97-1.67,1.81-7.25,0-14.49,0-21.74,0-2.21.04-4.44-1-5.6-2.83-.86-1.23-1.27-2.72-1.24-4.19,0-4.83,0-9.66,0-14.49-.06-.82.41-1.9,1.41-1.85,5-.06,10.01,0,15.02-.02,1.25,0,2.61-.26,3.49-1.19.87-.92,1.04-2.23,1.06-3.42,0-2.67,0-5.34,0-8.01,0-1.19-.16-2.49-1.01-3.42-.63-.75-1.7-.84-2.61-.95-1.9-.11-3.8,0-5.69-.05.4,1.24.84,2.55.55,3.86-.53,3.03-3.87,5.18-6.96,4.78-3.13-.3-5.49-3.4-5.25-6.35Z"/>
          <path class="cls-4" d="M345.62,288.07c.32-.63,1.1-.67,1.74-.66,10.86.02,21.72,0,32.57,0,1.17-.16,1.77,1.06,1.67,2.02,0,16.03,0,32.06,0,48.09.14.94-.64,1.86-1.64,1.78-2.13,0-4.26.05-6.38-.02-.79,0-1.17-.83-1.23-1.47-.09-1.46,0-2.93-.03-4.39-1.78-.11-3.88-.09-5.12,1.35-1.05,1.03-.24,2.62-.86,3.8-.9,1.01-2.44.62-3.65.7-.97.07-2.36-.27-2.33-1.44-.09-3.3,0-6.61-.12-9.9-.22-1.1-.7-2.42-1.92-2.8-1.36-.46-2.83-.44-4.25-.45-1.35.02-2.78.04-4.01.65-.92.51-1.12,1.6-1.43,2.49,2.12-.79,4.72-.8,6.55.64,1.56,1.32,2.62,3.33,2.43,5.37-.24,3.26-3.76,5.77-7.05,5.31-2.44-.21-4.36-2.18-5.03-4.36-.34-1.63-.27-3.31-.28-4.96.04-2.5.01-4.99.08-7.49.02-2.02,1.69-3.55,3.45-4.37,2.31-1.2,5.01-.74,7.52-.84,2.66-.14,5.32,1.3,6.6,3.54,1.15,2.02.65,4.41.76,6.61,2.88.02,5.77.05,8.65.08v-16.97c-1.68-.11-3.73-.17-4.91,1.2-1.11,1.43-.69,3.31-.9,4.96-.16.82-1.16,1.05-1.89,1.06-1.15-.01-2.35.16-3.45-.22-.62-.2-.87-.86-.82-1.44-.03-3.6-.02-7.2-.08-10.8-.12-1.23-.65-2.73-2.02-3.1-1.55-.48-3.2-.42-4.81-.41-1.13.04-2.31.11-3.33.62-.95.5-1.17,1.6-1.47,2.51,2.03-.73,4.5-.82,6.3.49,1.7,1.25,2.84,3.34,2.68,5.44-.22,3.51-4.24,6.19-7.73,5.29-1.69-.38-3.04-1.6-3.82-3.05-.82-1.31-.74-2.9-.8-4.37,0-3.05.03-6.11.07-9.16.01-1.18.84-2.17,1.78-2.84,1.64-1.16,3.64-1.9,5.7-1.82,2.37.11,4.94-.4,7.12.76,1.99,1.08,3.76,3.04,3.75,5.35.03,1.12,0,2.24,0,3.37,2.88.02,5.77.04,8.65.05v-10.84c-8.33-.01-16.65.02-24.98-.02-1.04.06-2.21-.73-2.03-1.83.06-1.17-.23-2.44.32-3.53Z"/>
          <path class="cls-4" d="M385.81,287.48c1.87-.15,3.75-.02,5.63-.07.66.03,1.47-.1,1.98.43.51.51.5,1.26.53,1.92,0,12.84,0,25.68,0,38.52-.02.76-.02,1.61-.49,2.26-.4.5-1.12.44-1.7.47-1.92-.02-3.84.03-5.76-.03-1.09,0-1.5-1.2-1.43-2.07,0-13.15,0-26.3,0-39.46-.04-.8.31-1.83,1.24-1.97Z"/>
        </g>
      </g>
      <rect x="50.85" y="267.36" width="396.93" height="3.2"/>
      <rect x="52.22" y="353.64" width="396.93" height="3.2"/>
    </g>
  </g>
</svg>