<?xml version="1.0" encoding="UTF-8"?>
<svg id="App_Store" data-name="App Store" xmlns="http://www.w3.org/2000/svg" viewBox="0 0 217.62 64.05">
  <defs>
    <style>
      .cls-1 {
        fill: #fff;
      }

      .cls-2 {
        fill: #00b069;
      }

      .cls-3 {
        fill: #a7a9ac;
      }
    </style>
  </defs>
  <g>
    <rect class="cls-2" x=".81" y=".81" width="216" height="62.44" rx="7.38" ry="7.38"/>
    <path class="cls-3" d="M209.43,64.05H8.19c-4.52,0-8.19-3.67-8.19-8.19V8.19C0,3.67,3.67,0,8.19,0h201.24c4.52,0,8.19,3.67,8.19,8.19v47.67c0,4.52-3.67,8.19-8.19,8.19h0ZM8.19,1.62c-3.62,0-6.57,2.95-6.57,6.57v47.67c0,3.62,2.95,6.57,6.57,6.57h201.24c3.62,0,6.57-2.95,6.57-6.57V8.19c0-3.63-2.95-6.57-6.57-6.57,0,0-201.24,0-201.24,0Z"/>
  </g>
  <g>
    <path class="cls-1" d="M18.53,12.97c12.51,0,25.02,0,37.54,0,0,1.02,0,2.04,0,3.06,0,.27-.03.55.08.8.98,2.36,1.95,4.72,2.94,7.08.14.37.12.77.17,1.15v.18c-.04,1.22-.5,2.43-1.33,3.34-.4.46-.89.82-1.42,1.13,0,6.91,0,13.81,0,20.72-12.79,0-25.58,0-38.37,0,0-6.91,0-13.81,0-20.72-1.06-.6-1.94-1.54-2.37-2.68-.23-.57-.33-1.18-.37-1.79v-.18c.04-.38.02-.78.17-1.15.92-2.25,1.83-4.5,2.75-6.75.09-.23.22-.45.21-.7,0-1.16,0-2.32,0-3.48ZM20.36,14.8c0,.61,0,1.22,0,1.83,11.29,0,22.59,0,33.88,0,0-.61,0-1.22,0-1.83-11.29,0-22.59,0-33.88,0ZM17.52,23.93c2.24,0,4.48,0,6.72,0,.27-1.81.53-3.62.8-5.42-1.77,0-3.54,0-5.31,0-.74,1.81-1.48,3.62-2.21,5.43ZM26.89,18.51c-.26,1.81-.53,3.61-.8,5.42,2.08,0,4.17,0,6.25,0,.09-1.81.18-3.62.27-5.42-1.91,0-3.82,0-5.73,0ZM34.45,18.51c-.09,1.81-.18,3.61-.27,5.42,2.09,0,4.18,0,6.28,0-.09-1.81-.17-3.62-.27-5.42-1.91,0-3.83,0-5.74,0ZM42.02,18.51c.09,1.81.18,3.62.27,5.42,2.09,0,4.18,0,6.27,0-.27-1.81-.54-3.62-.81-5.42-1.91,0-3.82,0-5.73,0ZM49.6,18.51c.27,1.81.54,3.62.81,5.42,2.24,0,4.47,0,6.71,0-.74-1.81-1.47-3.62-2.21-5.42-1.77,0-3.54,0-5.31,0ZM19.19,28.18c1.05.49,2.35.41,3.31-.25.55-.36.93-.91,1.31-1.43.1-.23.11-.49.17-.73-2.23,0-4.46,0-6.68,0,.2,1.05.92,1.98,1.89,2.42ZM25.75,26.46c.16.24.34.46.52.69.45.59,1.1,1.04,1.82,1.23.98.27,2.09.07,2.9-.54.5-.36.84-.88,1.2-1.37.08-.22.04-.48.07-.71-2.14,0-4.28,0-6.42,0-.03.23-.1.47-.08.7ZM34.08,25.76c-.01.21-.02.43-.03.64.4.54.78,1.12,1.34,1.5,1.14.81,2.78.79,3.9-.04.48-.33.81-.81,1.15-1.27.22-.23.08-.56.09-.84-2.15,0-4.31,0-6.46,0ZM42.38,25.76c.02.22-.01.46.06.67.4.55.8,1.14,1.38,1.52,1.13.76,2.72.73,3.82-.07.49-.34.83-.83,1.18-1.3.21-.23.02-.55.01-.82-2.15,0-4.3,0-6.45,0ZM50.68,25.76c.04.23.05.46.12.69.45.65.94,1.32,1.67,1.67,1.1.58,2.53.47,3.53-.26.7-.49,1.18-1.26,1.35-2.1-2.22,0-4.45,0-6.67,0ZM19.96,30.29c0,3.78,0,7.57,0,11.35,0,2.32-.02,4.65.01,6.97,7.3-.02,14.61,0,21.91,0,0-5.48,0-10.96,0-16.44,3.65,0,7.31,0,10.97,0,0,5.48,0,10.96,0,16.44.61,0,1.21,0,1.82,0,0-6.1,0-12.21,0-18.31-1.83.24-3.72-.58-4.83-2.04-.96,1.28-2.53,2.08-4.14,2.08-1.63.03-3.23-.78-4.21-2.08-.54.67-1.21,1.25-2.01,1.6-1.38.64-3.03.63-4.4-.02-.78-.35-1.42-.93-1.96-1.58-1.01,1.35-2.69,2.16-4.38,2.07-1.55-.05-3.03-.85-3.96-2.08-1.1,1.47-3,2.29-4.83,2.05ZM43.72,33.98c0,2.13,0,4.26,0,6.4.51.04,1.12-.13,1.54.26.4.37.35,1.08-.1,1.38-.42.28-.96.15-1.44.18,0,2.13,0,4.26,0,6.4,2.44,0,4.87,0,7.31,0v-14.62c-2.44,0-4.87,0-7.31,0Z"/>
    <path class="cls-1" d="M21.78,32.17c6.09-.03,12.18,0,18.28-.01,0,4.26,0,8.53,0,12.79-6.09,0-12.18,0-18.27,0,0-4.26,0-8.52,0-12.77ZM23.62,33.98v9.14c4.87,0,9.74,0,14.61,0,0-3.05,0-6.09,0-9.14-4.87,0-9.74,0-14.61,0Z"/>
    <path class="cls-1" d="M36.05,34.98c.5-.23,1.14.11,1.23.65.1.39-.14.76-.41,1.01-1.67,1.67-3.34,3.34-5.02,5.01-.23.22-.46.49-.79.53-.55.11-1.11-.41-1.04-.96.01-.28.19-.51.38-.7,1.75-1.75,3.51-3.51,5.26-5.26.12-.11.24-.22.39-.28Z"/>
    <path class="cls-1" d="M36.08,38.62c.48-.2,1.08.11,1.19.62.1.34-.05.7-.29.94-.57.57-1.14,1.14-1.71,1.71-.24.24-.6.38-.94.27-.44-.11-.74-.59-.64-1.03.03-.25.2-.44.37-.62.51-.51,1.03-1.03,1.54-1.54.14-.14.29-.27.48-.35Z"/>
  </g>
  <g>
    <path class="cls-1" d="M75.95,24.01c-.54-.26-.99-.63-1.34-1.11l1.23-1.59c.52.76,1.11,1.14,1.78,1.14.9,0,1.36-.57,1.36-1.71v-4.91h-3.37v-1.92h5.58v6.7c0,1.27-.29,2.22-.88,2.86-.58.63-1.44.95-2.58.95-.65,0-1.24-.13-1.79-.39Z"/>
    <path class="cls-1" d="M84.65,23.82c-.62-.35-1.1-.83-1.45-1.45-.35-.62-.52-1.32-.52-2.11s.17-1.49.52-2.11c.35-.62.83-1.1,1.45-1.45.62-.35,1.31-.52,2.09-.52s1.47.17,2.08.52c.61.35,1.09.83,1.44,1.45.35.62.52,1.32.52,2.11s-.17,1.49-.52,2.11c-.35.62-.83,1.1-1.44,1.45-.61.35-1.31.52-2.08.52s-1.47-.17-2.09-.52ZM88.09,21.86c.35-.4.53-.93.53-1.6s-.18-1.2-.53-1.6c-.35-.4-.8-.6-1.35-.6s-1,.2-1.36.6c-.36.4-.53.93-.53,1.6s.18,1.2.53,1.6c.36.4.81.6,1.36.6s1-.2,1.35-.6Z"/>
    <path class="cls-1" d="M92.32,14.81c-.25-.25-.37-.55-.37-.91s.12-.67.37-.91c.25-.25.57-.37.96-.37s.71.12.96.35c.25.24.37.53.37.88,0,.38-.12.7-.37.95-.25.25-.57.38-.96.38s-.71-.12-.96-.37ZM92.21,16.29h2.14v7.94h-2.14v-7.94Z"/>
    <path class="cls-1" d="M103.02,17.06c.56.59.84,1.47.84,2.63v4.54h-2.14v-4.19c0-.63-.13-1.1-.38-1.41-.26-.31-.63-.46-1.11-.46-.54,0-.97.18-1.29.54-.32.36-.48.89-.48,1.6v3.92h-2.14v-7.94h2.04v.93c.28-.33.63-.59,1.06-.77.42-.18.88-.27,1.38-.27.91,0,1.65.29,2.21.88Z"/>
    <path class="cls-1" d="M121.51,16.29l-2.67,7.94h-2.06l-1.66-4.93-1.71,4.93h-2.06l-2.66-7.94h2.01l1.74,5.37,1.81-5.37h1.81l1.75,5.37,1.8-5.37h1.89Z"/>
    <path class="cls-1" d="M122.62,14.81c-.25-.25-.37-.55-.37-.91s.12-.67.37-.91c.25-.25.57-.37.96-.37s.71.12.96.35c.25.24.37.53.37.88,0,.38-.12.7-.37.95-.25.25-.57.38-.96.38s-.71-.12-.96-.37ZM122.51,16.29h2.14v7.94h-2.14v-7.94Z"/>
    <path class="cls-1" d="M131.39,23.84c-.21.17-.47.29-.77.38s-.63.13-.97.13c-.88,0-1.55-.24-2.03-.72-.48-.48-.72-1.19-.72-2.12v-3.26h-1.14v-1.77h1.14v-1.93h2.14v1.93h1.84v1.77h-1.84v3.23c0,.33.08.59.24.78.16.18.39.27.68.27.34,0,.63-.1.86-.29l.58,1.62Z"/>
    <path class="cls-1" d="M139.29,17.06c.56.59.84,1.47.84,2.63v4.54h-2.14v-4.19c0-.63-.13-1.1-.38-1.41-.26-.31-.63-.46-1.11-.46-.54,0-.97.18-1.29.54-.32.36-.48.89-.48,1.6v3.92h-2.14v-10.95h2.14v3.84c.28-.3.63-.54,1.03-.7.4-.16.84-.24,1.32-.24.91,0,1.65.29,2.21.88Z"/>
    <path class="cls-1" d="M153.36,16.29v7.94h-2.03v-.94c-.28.34-.62.61-1.01.79-.39.18-.82.27-1.27.27-.97,0-1.74-.3-2.3-.9-.57-.6-.85-1.49-.85-2.67v-4.49h2.14v4.15c0,1.28.5,1.92,1.49,1.92.51,0,.92-.18,1.23-.54s.47-.89.47-1.6v-3.92h2.14Z"/>
    <path class="cls-1" d="M156.04,24.1c-.58-.16-1.05-.37-1.4-.61l.71-1.65c.33.23.73.41,1.19.55.47.14.92.21,1.37.21.9,0,1.36-.24,1.36-.72,0-.23-.12-.39-.37-.49-.25-.1-.63-.18-1.14-.25-.6-.1-1.1-.21-1.49-.34-.39-.13-.73-.35-1.02-.68s-.43-.79-.43-1.39c0-.5.13-.95.4-1.34s.66-.69,1.18-.91c.52-.22,1.13-.32,1.83-.32.52,0,1.04.06,1.56.18.52.12.94.29,1.28.51l-.71,1.64c-.65-.39-1.36-.59-2.12-.59-.46,0-.8.07-1.03.21-.23.14-.34.31-.34.53,0,.25.12.42.37.52.25.1.64.19,1.18.28.6.11,1.1.22,1.48.35s.72.35,1,.67.42.78.42,1.36c0,.49-.14.93-.41,1.31-.27.38-.67.68-1.2.89s-1.15.32-1.87.32c-.61,0-1.21-.08-1.8-.24Z"/>
    <path class="cls-1" d="M172.11,17.05c.61.59.92,1.47.92,2.65v4.53h-2v-.99c-.4.74-1.15,1.11-2.25,1.11-.57,0-1.06-.1-1.47-.31-.42-.21-.73-.49-.95-.86s-.33-.78-.33-1.24c0-.74.26-1.32.77-1.74.52-.42,1.31-.63,2.39-.63h1.7c0-.5-.14-.89-.42-1.16s-.71-.41-1.27-.41c-.39,0-.78.07-1.16.2-.38.13-.7.31-.97.54l-.77-1.61c.4-.3.88-.54,1.45-.71.56-.17,1.14-.25,1.73-.25,1.14,0,2.02.29,2.63.88ZM170.28,22.52c.28-.18.48-.45.6-.8v-.81h-1.47c-.88,0-1.32.31-1.32.93,0,.29.11.53.32.7.21.17.51.26.88.26s.69-.09.97-.27Z"/>
    <path class="cls-1" d="M175.64,24.1c-.58-.16-1.05-.37-1.4-.61l.71-1.65c.33.23.73.41,1.19.55.47.14.92.21,1.37.21.9,0,1.36-.24,1.36-.72,0-.23-.12-.39-.37-.49-.25-.1-.63-.18-1.14-.25-.6-.1-1.1-.21-1.49-.34-.39-.13-.73-.35-1.02-.68s-.43-.79-.43-1.39c0-.5.13-.95.4-1.34s.66-.69,1.18-.91c.52-.22,1.13-.32,1.83-.32.52,0,1.04.06,1.56.18.52.12.94.29,1.28.51l-.71,1.64c-.65-.39-1.36-.59-2.12-.59-.46,0-.8.07-1.03.21-.23.14-.34.31-.34.53,0,.25.12.42.37.52.25.1.64.19,1.18.28.6.11,1.1.22,1.48.35s.72.35,1,.67.42.78.42,1.36c0,.49-.14.93-.41,1.31-.27.38-.67.68-1.2.89s-1.15.32-1.87.32c-.61,0-1.21-.08-1.8-.24Z"/>
    <path class="cls-1" d="M191.71,17.05c.61.59.92,1.47.92,2.65v4.53h-2v-.99c-.4.74-1.15,1.11-2.25,1.11-.57,0-1.06-.1-1.47-.31-.42-.21-.73-.49-.95-.86s-.33-.78-.33-1.24c0-.74.26-1.32.77-1.74.52-.42,1.31-.63,2.39-.63h1.7c0-.5-.14-.89-.42-1.16s-.71-.41-1.27-.41c-.39,0-.78.07-1.16.2-.38.13-.7.31-.97.54l-.77-1.61c.4-.3.88-.54,1.45-.71.56-.17,1.14-.25,1.73-.25,1.14,0,2.02.29,2.63.88ZM189.89,22.52c.28-.18.48-.45.6-.8v-.81h-1.47c-.88,0-1.32.31-1.32.93,0,.29.11.53.32.7.21.17.51.26.88.26s.69-.09.97-.27Z"/>
  </g>
  <g>
    <path class="cls-1" d="M98.29,30.41l-6.75,16.04h-3.56l-6.73-16.04h3.9l4.74,11.46,4.81-11.46h3.59Z"/>
    <path class="cls-1" d="M111.65,43.47v2.98h-12.07v-16.04h11.78v2.98h-8.2v3.48h7.24v2.89h-7.24v3.71h8.49Z"/>
    <path class="cls-1" d="M128.83,30.41v16.04h-2.96l-7.77-9.74v9.74h-3.56v-16.04h2.98l7.75,9.74v-9.74h3.56Z"/>
    <path class="cls-1" d="M132.52,30.41h7.08c1.69,0,3.19.33,4.49,1s2.31,1.6,3.03,2.81c.72,1.21,1.08,2.61,1.08,4.22s-.36,3.01-1.08,4.22c-.72,1.21-1.73,2.14-3.03,2.81s-2.79,1-4.49,1h-7.08v-16.04ZM139.43,43.4c1.56,0,2.8-.45,3.73-1.34.93-.89,1.39-2.1,1.39-3.63s-.46-2.74-1.39-3.63c-.93-.89-2.17-1.34-3.73-1.34h-3.3v9.94h3.3Z"/>
    <path class="cls-1" d="M154.09,45.64c-1.3-.72-2.32-1.71-3.05-2.97-.73-1.26-1.1-2.68-1.1-4.25s.37-2.99,1.1-4.25c.73-1.26,1.75-2.25,3.05-2.97,1.3-.72,2.76-1.08,4.38-1.08s3.07.36,4.37,1.08,2.31,1.71,3.05,2.97c.74,1.26,1.11,2.68,1.11,4.25s-.37,2.99-1.11,4.25c-.74,1.26-1.76,2.25-3.05,2.97s-2.75,1.08-4.37,1.08-3.08-.36-4.38-1.08ZM160.96,42.91c.74-.44,1.32-1.04,1.75-1.82.42-.78.63-1.66.63-2.66s-.21-1.88-.63-2.66c-.42-.78-1.01-1.39-1.75-1.82-.74-.44-1.57-.65-2.49-.65s-1.75.22-2.49.65c-.74.44-1.33,1.04-1.75,1.82-.42.78-.63,1.67-.63,2.66s.21,1.88.63,2.66c.42.78,1.01,1.39,1.75,1.82.74.44,1.57.65,2.49.65s1.75-.22,2.49-.65Z"/>
    <path class="cls-1" d="M179.65,46.45l-3.01-4.47h-3.32v4.47h-3.61v-16.04h6.75c1.38,0,2.58.24,3.6.71s1.8,1.14,2.35,2.02.82,1.9.82,3.09-.28,2.22-.83,3.08c-.56.86-1.35,1.52-2.37,1.98l3.5,5.16h-3.88ZM178.74,34.15c-.56-.48-1.39-.72-2.47-.72h-2.94v5.59h2.94c1.08,0,1.91-.24,2.47-.73s.85-1.18.85-2.06-.28-1.59-.85-2.07Z"/>
  </g>
</svg>